<?xml version="1.0" standalone="no"?><!DOCTYPE svg PUBLIC "-//W3C//DTD SVG 1.1//EN" "http://www.w3.org/Graphics/SVG/1.1/DTD/svg11.dtd"><svg t="1732206748983" class="icon" viewBox="0 0 1024 1024" version="1.1" xmlns="http://www.w3.org/2000/svg" p-id="44421" xmlns:xlink="http://www.w3.org/1999/xlink" width="200" height="200"><path d="M512 64c31.44 0 58.07 10.92 79.91 32.75 21.83 21.83 32.75 48.47 32.75 79.91 0 31.44-10.92 58.07-32.75 79.9-21.83 21.83-48.47 32.75-79.91 32.75-31.44 0-58.07-10.92-79.91-32.75-21.83-21.83-32.75-48.47-32.75-79.9 0-31.44 10.92-58.08 32.75-79.91C453.93 74.92 480.56 64 512 64z m0 335.35c31.44 0 58.07 10.92 79.91 32.75 21.83 21.83 32.75 48.47 32.75 79.91s-10.92 58.07-32.75 79.91c-21.83 21.83-48.47 32.75-79.91 32.75-31.44 0-58.07-10.91-79.91-32.75-21.83-21.83-32.75-48.47-32.75-79.91s10.92-58.07 32.75-79.91c21.84-21.84 48.47-32.75 79.91-32.75z m0 335.34c31.44 0 58.07 10.92 79.91 32.75 21.83 21.83 32.75 48.47 32.75 79.91 0 31.44-10.92 58.07-32.75 79.91C570.07 949.08 543.44 960 512 960c-31.44 0-58.07-10.92-79.91-32.75-21.83-21.83-32.75-48.47-32.75-79.91 0-31.44 10.92-58.08 32.75-79.91 21.84-21.82 48.47-32.74 79.91-32.74z" p-id="44422" fill="#2c2c2c"></path></svg>