<?xml version="1.0" standalone="no"?><!DOCTYPE svg PUBLIC "-//W3C//DTD SVG 1.1//EN" "http://www.w3.org/Graphics/SVG/1.1/DTD/svg11.dtd"><svg t="1732205776876" class="icon" viewBox="0 0 1024 1024" version="1.1" xmlns="http://www.w3.org/2000/svg" p-id="14960" xmlns:xlink="http://www.w3.org/1999/xlink" width="200" height="200"><path d="M896 362.666667v394.666666A138.666667 138.666667 0 0 1 757.333333 896H266.666667A138.666667 138.666667 0 0 1 128 757.333333V362.666667h768zM309.333333 640a53.333333 53.333333 0 1 0 0 106.666667 53.333333 53.333333 0 0 0 0-106.666667zM512 640a53.333333 53.333333 0 1 0 0 106.666667 53.333333 53.333333 0 0 0 0-106.666667z m-202.666667-192a53.333333 53.333333 0 1 0 0 106.666667 53.333333 53.333333 0 0 0 0-106.666667z m202.666667 0a53.333333 53.333333 0 1 0 0 106.666667 53.333333 53.333333 0 0 0 0-106.666667z m202.666667 0a53.333333 53.333333 0 1 0 0 106.666667 53.333333 53.333333 0 0 0 0-106.666667z m42.666666-320A138.666667 138.666667 0 0 1 896 266.666667V298.666667H128v-32A138.666667 138.666667 0 0 1 266.666667 128h490.666666z" fill="#212121" p-id="14961"></path></svg>