<?xml version="1.0" standalone="no"?><!DOCTYPE svg PUBLIC "-//W3C//DTD SVG 1.1//EN" "http://www.w3.org/Graphics/SVG/1.1/DTD/svg11.dtd"><svg t="1732206255731" class="icon" viewBox="0 0 1024 1024" version="1.1" xmlns="http://www.w3.org/2000/svg" p-id="28084" xmlns:xlink="http://www.w3.org/1999/xlink" width="200" height="200"><path d="M853.333333 149.333333v224.426667a128 128 0 0 1-37.546666 90.453333l-78.08 78.08a42.666667 42.666667 0 0 0-12.373334 29.866667v302.506667a21.333333 21.333333 0 0 1-21.333333 21.333333h-85.333333a21.333333 21.333333 0 0 1-21.333334-21.333333v-174.506667a42.666667 42.666667 0 0 0-12.373333-29.866667l-17.92-17.92a42.666667 42.666667 0 0 0-29.866667-12.373333h-50.346666a42.666667 42.666667 0 0 0-29.866667 12.373333l-17.92 17.92a42.666667 42.666667 0 0 0-12.373333 29.866667v174.506667a21.333333 21.333333 0 0 1-21.333334 21.333333h-85.333333a21.333333 21.333333 0 0 1-21.333333-21.333333v-302.506667a42.666667 42.666667 0 0 0-12.373334-29.866667l-78.08-78.08A128 128 0 0 1 170.666667 373.76V149.333333a21.333333 21.333333 0 0 1 21.333333-21.333333h85.333333a21.333333 21.333333 0 0 1 21.333334 21.333333v85.333334a21.333333 21.333333 0 0 0 21.333333 21.333333h85.333333a21.333333 21.333333 0 0 0 21.333334-21.333333v-85.333334a21.333333 21.333333 0 0 1 21.333333-21.333333h128a21.333333 21.333333 0 0 1 21.333333 21.333333v85.333334a21.333333 21.333333 0 0 0 21.333334 21.333333h85.333333a21.333333 21.333333 0 0 0 21.333333-21.333333v-85.333334a21.333333 21.333333 0 0 1 21.333334-21.333333h85.333333a21.333333 21.333333 0 0 1 21.333333 21.333333z" p-id="28085" fill="#2c2c2c"></path></svg>