<?xml version="1.0" standalone="no"?><!DOCTYPE svg PUBLIC "-//W3C//DTD SVG 1.1//EN" "http://www.w3.org/Graphics/SVG/1.1/DTD/svg11.dtd"><svg t="1732207474683" class="icon" viewBox="0 0 1024 1024" version="1.1" xmlns="http://www.w3.org/2000/svg" p-id="79759" xmlns:xlink="http://www.w3.org/1999/xlink" width="256" height="256"><path d="M341.333333 405.333333A53.333333 53.333333 0 1 0 341.333333 512a53.333333 53.333333 0 0 0 0-106.666667zM512 405.333333a53.333333 53.333333 0 1 0 0 106.666667 53.333333 53.333333 0 0 0 0-106.666667zM629.333333 458.666667a53.333333 53.333333 0 1 1 106.666667 0 53.333333 53.333333 0 0 1-106.666667 0z" fill="#2c2c2c" p-id="79760"></path><path d="M686.933333 195.968a2157.952 2157.952 0 0 0-345.514666-1.706667l-8.234667 0.597334A210.346667 210.346667 0 0 0 138.666667 404.608V768a32 32 0 0 0 47.146666 28.16l166.826667-89.642667a53.333333 53.333333 0 0 1 25.301333-6.357333h382.976c48.298667 0 89.685333-34.56 98.346667-82.048 17.578667-96.298667 18.944-194.858667 4.096-291.626667l-4.352-28.544a113.749333 113.749333 0 0 0-102.784-96.085333l-69.248-5.888zM346.282667 258.090667a2093.994667 2093.994667 0 0 1 335.274666 1.621333l69.290667 5.930667c22.869333 1.962667 41.472 19.328 44.928 42.026666l4.394667 28.501334a817.706667 817.706667 0 0 1-3.84 270.464 35.968 35.968 0 0 1-35.370667 29.525333H377.941333a117.333333 117.333333 0 0 0-55.552 13.994667L202.666667 714.496V404.565333a146.346667 146.346667 0 0 1 135.296-145.92l8.277333-0.597333z" fill="#2c2c2c" p-id="79761"></path></svg>