<?xml version="1.0" standalone="no"?><!DOCTYPE svg PUBLIC "-//W3C//DTD SVG 1.1//EN" "http://www.w3.org/Graphics/SVG/1.1/DTD/svg11.dtd"><svg t="1732206652406" class="icon" viewBox="0 0 1024 1024" version="1.1" xmlns="http://www.w3.org/2000/svg" p-id="41147" xmlns:xlink="http://www.w3.org/1999/xlink" width="200" height="200"><path d="M861.013333 526.08a20.906667 20.906667 0 0 1 0-28.16 170.666667 170.666667 0 0 0-162.133333-280.746667 21.76 21.76 0 0 1-24.746667-14.506666 170.666667 170.666667 0 0 0-324.266666 0 21.76 21.76 0 0 1-24.746667 14.506666 170.666667 170.666667 0 0 0-162.133333 280.746667 20.906667 20.906667 0 0 1 0 28.16 170.666667 170.666667 0 0 0 162.133333 280.746667 21.76 21.76 0 0 1 24.746667 14.506666 170.666667 170.666667 0 0 0 324.266666 0 21.76 21.76 0 0 1 24.746667-14.506666 170.666667 170.666667 0 0 0 162.133333-280.746667zM512 682.666667a170.666667 170.666667 0 1 1 170.666667-170.666667 170.666667 170.666667 0 0 1-170.666667 170.666667z" p-id="41148" fill="#2c2c2c"></path></svg>