<?xml version="1.0" standalone="no"?><!DOCTYPE svg PUBLIC "-//W3C//DTD SVG 1.1//EN" "http://www.w3.org/Graphics/SVG/1.1/DTD/svg11.dtd"><svg t="1732206312326" class="icon" viewBox="0 0 1024 1024" version="1.1" xmlns="http://www.w3.org/2000/svg" p-id="29502" xmlns:xlink="http://www.w3.org/1999/xlink" width="200" height="200"><path d="M223.444 424.016A60 60 0 0 0 202 469.986V822h170V606c0-33.138 26.862-60 60-60h160c33.138 0 60 26.862 60 60v216h170V469.986a60 60 0 0 0-21.444-45.97l-250-209.678c-22.3-18.704-54.812-18.704-77.112 0l-250 209.678zM562 636h-100v186c0 49.706-40.294 90-90 90h-170c-49.706 0-90-40.294-90-90V469.986a150 150 0 0 1 53.608-114.928l250-209.678c55.754-46.76 137.03-46.76 192.784 0l250 209.678A150 150 0 0 1 912 469.986V822c0 49.706-40.294 90-90 90h-170c-49.706 0-90-40.294-90-90v-186z" fill="#2c2c2c" p-id="29503"></path></svg>