<?xml version="1.0" standalone="no"?><!DOCTYPE svg PUBLIC "-//W3C//DTD SVG 1.1//EN" "http://www.w3.org/Graphics/SVG/1.1/DTD/svg11.dtd"><svg t="1732207306756" class="icon" viewBox="0 0 1024 1024" version="1.1" xmlns="http://www.w3.org/2000/svg" p-id="69930" xmlns:xlink="http://www.w3.org/1999/xlink" width="256" height="256"><path d="M810.554166 57.547768H213.848945c-86.156711 0-156.281057 70.126346-156.281057 156.280058v596.704221c0 86.208692 70.123347 156.279058 156.281057 156.279058h596.704221c86.207693 0 156.277059-70.070366 156.277059-156.279058V213.827826c0.001-86.152712-70.068367-156.280058-156.276059-156.280058z m71.037026 752.984279a71.061018 71.061018 0 0 1-71.034027 71.036027H213.848945a71.097005 71.097005 0 0 1-71.037026-71.036027v-56.26122L289.772254 567.359538a70.753126 70.753126 0 0 1 54.3289-27.106471c19.263228 0.2839 41.485415 8.524003 55.406521 24.66333l17.676785 20.513788a28.734898 28.734898 0 0 0 2.099262 2.499121l117.408724 136.73393a42.63901 42.63901 0 0 0 64.727244-55.522481l-95.696357-111.440821c52.28162-66.776524 112.577422-144.685134 125.248967-161.05238a70.752126 70.752126 0 0 1 54.210942-26.88055c22.901949 0.68176 41.430435 8.637963 55.29656 24.663329l137.18577 159.74384c1.30854 1.420501 2.554102 2.784021 3.920622 4.034582z m0-382.630481l-76.434128-88.993713a155.645281 155.645281 0 0 0-118.431364-54.380882c-1.140599 0-2.163239 0-3.240861 0.05698-46.768558 0.90968-90.300254 22.447108-116.045203 55.464501-1.249561 1.30754-4.598383 5.343122-5.682002 6.763622-10.396345 13.468265-64.043485 82.742911-113.714023 146.277574-29.09877-25.232129-65.976805-40.405795-105.817798-38.018634a155.684267 155.684267 0 0 0-119.450006 59.557062l-79.959889 101.664259v-402.458511a71.134992 71.134992 0 0 1 71.038026-71.037026h596.704221a71.099004 71.099004 0 0 1 71.033027 71.031028z" p-id="69931" fill="#2c2c2c"></path></svg>