<?xml version="1.0" standalone="no"?><!DOCTYPE svg PUBLIC "-//W3C//DTD SVG 1.1//EN" "http://www.w3.org/Graphics/SVG/1.1/DTD/svg11.dtd"><svg t="1732205694734" class="icon" viewBox="0 0 1024 1024" version="1.1" xmlns="http://www.w3.org/2000/svg" p-id="30191" xmlns:xlink="http://www.w3.org/1999/xlink" width="200" height="200"><path d="M512 192c179.2 0 320 140.8 320 320s-140.8 320-320 320-320-140.8-320-320S332.8 192 512 192M512 128C300.8 128 128 300.8 128 512s172.8 384 384 384 384-172.8 384-384S723.2 128 512 128L512 128z" fill="#2c2c2c" p-id="30192"></path><path d="M544 416l236.8 0C774.4 403.2 768 384 761.6 371.2L544 371.2 544 416z" fill="#2c2c2c" p-id="30193"></path><path d="M544 608l0 44.8 217.6 0c6.4-12.8 12.8-32 19.2-44.8L544 608z" fill="#2c2c2c" p-id="30194"></path><path d="M544 723.2 544 768 640 768c25.6-12.8 44.8-25.6 64-44.8L544 723.2z" fill="#2c2c2c" p-id="30195"></path><path d="M800 492.8l-256 0 0 44.8 256 0c0-6.4 0-12.8 0-25.6S800 499.2 800 492.8z" fill="#2c2c2c" p-id="30196"></path><path d="M544 300.8 704 300.8c-19.2-19.2-38.4-32-64-44.8L544 256 544 300.8z" fill="#2c2c2c" p-id="30197"></path></svg>