<?xml version="1.0" standalone="no"?><!DOCTYPE svg PUBLIC "-//W3C//DTD SVG 1.1//EN" "http://www.w3.org/Graphics/SVG/1.1/DTD/svg11.dtd"><svg t="1732206482145" class="icon" viewBox="0 0 1024 1024" version="1.1" xmlns="http://www.w3.org/2000/svg" p-id="34801" xmlns:xlink="http://www.w3.org/1999/xlink" width="200" height="200"><path d="M364.8 574.304c-19.264 0-34.88 15.568-34.88 34.72v132.96c0 19.152 15.616 34.688 34.88 34.688a34.784 34.784 0 0 0 34.864-34.688v-132.96c0-19.152-15.616-34.72-34.864-34.72M660.528 574.304a34.832 34.832 0 0 0-34.864 34.72v132.96c0 19.152 15.632 34.688 34.864 34.688a34.768 34.768 0 0 0 34.864-34.688v-132.96c0-19.152-15.6-34.72-34.864-34.72M512.656 615.008a34.784 34.784 0 0 0-34.864 34.688v51.616c0 19.184 15.616 34.72 34.864 34.72 19.264 0 34.88-15.536 34.88-34.72v-51.616a34.784 34.784 0 0 0-34.88-34.688" p-id="34802" fill="#2c2c2c"></path><path d="M832.96 794.4V557.152c51.536 15.024 89.344 62.464 89.344 118.592 0 56.16-37.808 103.632-89.344 118.656M101.728 675.744c0-56.88 38.784-104.848 91.392-119.216v238.432c-52.608-14.336-91.392-62.336-91.392-119.216M832.96 485.936V473.6c0-175.568-143.552-318.336-319.904-318.336-176.416 0-319.936 142.784-319.936 318.336v11.968C101.76 501.168 32 580.48 32 675.76c0 106.432 87.008 192.992 193.952 192.992l1.024-0.032 1.008 0.032a34.784 34.784 0 0 0 34.864-34.688V473.6c0-137.28 112.24-248.96 250.208-248.96 137.936 0 250.176 111.68 250.176 248.96v358.16c0 0.4 0.048 0.784 0.08 1.184-0.032 0.336-0.08 0.752-0.08 1.12 0 19.152 15.616 34.688 34.88 34.688 106.928 0 193.888-86.56 193.888-192.992 0-94.608-68.704-173.424-159.04-189.824" p-id="34803" fill="#2c2c2c"></path></svg>