<?xml version="1.0" standalone="no"?><!DOCTYPE svg PUBLIC "-//W3C//DTD SVG 1.1//EN" "http://www.w3.org/Graphics/SVG/1.1/DTD/svg11.dtd"><svg t="1732205840466" class="icon" viewBox="0 0 1024 1024" version="1.1" xmlns="http://www.w3.org/2000/svg" p-id="17122" xmlns:xlink="http://www.w3.org/1999/xlink" width="200" height="200"><path d="M512 107.52c-223.37536 0-404.48 181.08416-404.48 404.48s181.10464 404.48 404.48 404.48 404.48-181.08416 404.48-404.48-181.10464-404.48-404.48-404.48z m-222.43328 501.1456a97.60768 97.60768 0 1 1 0.83968-195.19488 97.60768 97.60768 0 0 1-0.83968 195.19488z m221.10208 222.9248a97.54624 97.54624 0 0 1-97.15712-97.95584c0.22528-53.88288 44.09344-97.42336 97.97632-97.19808s97.3824 44.1344 97.1776 98.01728a97.5872 97.5872 0 0 1-97.9968 97.13664z m-41.32864-319.5904a42.65984 42.65984 0 1 1 85.31968 0 42.65984 42.65984 0 0 1-85.31968 0z m43.17184-124.43648a97.56672 97.56672 0 1 1 0.79872-195.1744 97.56672 97.56672 0 0 1-0.79872 195.1744zM733.5936 610.52928a97.60768 97.60768 0 1 1 0.88064-195.19488 97.60768 97.60768 0 0 1-0.88064 195.19488z" p-id="17123" fill="#2c2c2c"></path></svg>