<?xml version="1.0" standalone="no"?><!DOCTYPE svg PUBLIC "-//W3C//DTD SVG 1.1//EN" "http://www.w3.org/Graphics/SVG/1.1/DTD/svg11.dtd"><svg t="1732206352255" class="icon" viewBox="0 0 1024 1024" version="1.1" xmlns="http://www.w3.org/2000/svg" p-id="30999" xmlns:xlink="http://www.w3.org/1999/xlink" width="200" height="200"><path d="M768 64H192c-70.4 0-128 57.6-128 128v576c0 70.4 57.6 128 128 128h576c70.4 0 128-57.6 128-128V192c0-70.4-57.6-128-128-128zM640 672c0 17.92-14.08 32-32 32H288c-17.92 0-32-14.08-32-32s14.08-32 32-32h320c17.92 0 32 14.08 32 32zM256 480c0-17.92 14.08-32 32-32h256c17.92 0 32 14.08 32 32s-14.08 32-32 32H288c-17.92 0-32-14.08-32-32z m416-160H288c-17.92 0-32-14.08-32-32s14.08-32 32-32h384c17.92 0 32 14.08 32 32s-14.08 32-32 32z" p-id="31000" fill="#2c2c2c"></path></svg>