<?xml version="1.0" standalone="no"?><!DOCTYPE svg PUBLIC "-//W3C//DTD SVG 1.1//EN" "http://www.w3.org/Graphics/SVG/1.1/DTD/svg11.dtd"><svg t="1732207259975" class="icon" viewBox="0 0 1024 1024" version="1.1" xmlns="http://www.w3.org/2000/svg" p-id="66043" xmlns:xlink="http://www.w3.org/1999/xlink" width="256" height="256"><path d="M629.76 194.56c-16.603429-14.409143-59.757714-26.697143-117.174857 9.435429-183.442286 115.565714-343.259429 324.022857-397.312 399.579428a54.857143 54.857143 0 0 1-89.234286-63.780571c54.857143-76.653714 225.133714-300.836571 428.105143-428.617143C541.988571 55.808 640 58.148571 701.732571 111.689143c30.793143 26.697143 50.029714 65.097143 50.322286 108.690286 0.292571 43.227429-17.993143 86.089143-51.346286 124.196571-104.374857 119.369143-242.249143 281.234286-300.178285 360.228571-7.606857 10.386286-8.118857 18.285714-7.460572 22.820572 0.731429 5.12 3.437714 9.947429 8.045715 13.385143 4.461714 3.291429 11.556571 6.070857 21.869714 4.900571 10.24-1.243429 26.331429-6.875429 45.933714-24.795428 16.530286-15.213714 33.718857-31.451429 51.419429-48.054858 54.491429-51.273143 113.371429-106.788571 172.324571-150.162285 61.293714-45.056 132.973714-57.563429 187.318857-24.356572 27.136 16.603429 46.226286 43.154286 52.882286 74.898286 6.582857 31.451429 0.292571 64.219429-15.579429 94.354286-16.969143 32.329143-31.744 55.588571-44.982857 76.507428l-1.024 1.682286a775.314286 775.314286 0 0 0-35.474285 59.904 37.010286 37.010286 0 0 0-1.755429 30.354286c1.755429 4.388571 3.437714 6.509714 4.388571 7.387428 6.729143 0.512 12.580571-1.170286 21.869715-8.338285 13.019429-10.166857 27.574857-27.355429 49.444571-56.027429a54.857143 54.857143 0 0 1 87.186286 66.633143c-20.845714 27.282286-43.446857 55.881143-69.339429 76.068571-28.672 22.235429-63.414857 35.766857-105.618285 30.208-46.299429-5.997714-76.653714-41.691429-90.038858-75.849143-14.043429-35.766857-14.701714-80.457143 6.582858-121.270857 13.897143-26.624 27.062857-47.323429 39.570285-66.998857l1.536-2.486857c12.946286-20.406857 25.746286-40.667429 40.594286-68.900571 6.217143-11.849143 5.632-18.651429 5.193143-20.772572a4.973714 4.973714 0 0 0-2.633143-3.730286c-3.145143-1.974857-25.380571-10.093714-65.097143 19.163429-53.101714 38.985143-104.813714 87.771429-157.988571 137.801143-18.651429 17.554286-37.522286 35.328-56.685715 52.882286-67.510857 61.878857-149.723429 70.144-207.579428 26.843428-56.32-42.130286-71.753143-122.88-23.405714-188.854857 61.220571-83.529143 202.386286-249.051429 306.102857-367.616 19.821714-22.674286 24.283429-40.594286 24.210285-51.346286a34.230857 34.230857 0 0 0-12.507428-26.477714z" fill="#2c2c2c" p-id="66044"></path></svg>