<?xml version="1.0" standalone="no"?><!DOCTYPE svg PUBLIC "-//W3C//DTD SVG 1.1//EN" "http://www.w3.org/Graphics/SVG/1.1/DTD/svg11.dtd"><svg t="1732207747554" class="icon" viewBox="0 0 1034 1024" version="1.1" xmlns="http://www.w3.org/2000/svg" p-id="89279" xmlns:xlink="http://www.w3.org/1999/xlink" width="258.5" height="256"><path d="M974.687215 120.340583L551.72796 548.021508a49.890419 49.890419 0 0 1-35.782296 15.245875 51.198834 51.198834 0 0 1-35.270308-87.20868l138.578177-140.284805a198.594588 198.594588 0 0 0-103.307869-28.898897 204.795335 204.795335 0 1 0 201.83718 218.562133l91.020149-91.930351a299.911391 299.911391 0 0 1 10.922418 78.277329 303.609084 303.609084 0 1 1-303.609084-307.193003 297.749662 297.749662 0 0 1 175.953325 57.285806l144.266936-146.030452A498.790416 498.790416 0 0 0 516.116327 0.250874a511.021249 511.021249 0 1 0 448.388009 275.279063l69.573526-70.42684a617.856149 617.856149 0 0 0-59.163097-84.591851z" fill="#2c2c2c" p-id="89280"></path></svg>