<?xml version="1.0" standalone="no"?><!DOCTYPE svg PUBLIC "-//W3C//DTD SVG 1.1//EN" "http://www.w3.org/Graphics/SVG/1.1/DTD/svg11.dtd"><svg t="1732206164303" class="icon" viewBox="0 0 1024 1024" version="1.1" xmlns="http://www.w3.org/2000/svg" p-id="26430" xmlns:xlink="http://www.w3.org/1999/xlink" width="200" height="200"><path d="M268.501333 499.498667a42.666667 42.666667 0 0 1 60.330667-60.330667L469.333333 579.669333V85.333333a42.666667 42.666667 0 0 1 85.333334 0v494.336l140.501333-140.501333a42.666667 42.666667 0 0 1 60.330667 60.330667l-213.333334 213.333333a42.666667 42.666667 0 0 1-60.330666 0zM938.666667 640a42.666667 42.666667 0 0 0-42.666667 42.666667v170.666666a42.154667 42.154667 0 0 1-41.557333 42.666667H170.666667a42.666667 42.666667 0 0 1-42.666667-42.666667v-170.666666a42.666667 42.666667 0 0 0-85.333333 0v170.666666a127.744 127.744 0 0 0 37.504 90.538667 128.213333 128.213333 0 0 0 40.661333 27.392A126.848 126.848 0 0 0 170.666667 981.333333h683.776a124.970667 124.970667 0 0 0 49.578666-10.154666 127.530667 127.530667 0 0 0 67.413334-68.266667A128.341333 128.341333 0 0 0 981.333333 853.333333v-170.666666a42.666667 42.666667 0 0 0-42.666666-42.666667z" p-id="26431" fill="#2c2c2c"></path></svg>