<?xml version="1.0" standalone="no"?><!DOCTYPE svg PUBLIC "-//W3C//DTD SVG 1.1//EN" "http://www.w3.org/Graphics/SVG/1.1/DTD/svg11.dtd"><svg t="1732206731119" class="icon" viewBox="0 0 1024 1024" version="1.1" xmlns="http://www.w3.org/2000/svg" p-id="43791" xmlns:xlink="http://www.w3.org/1999/xlink" width="200" height="200"><path d="M132.608 649.813333C59.477333 649.813333 0 590.378667 0 517.248s59.477333-132.608 132.608-132.608c73.088 0 132.608 59.477333 132.608 132.608S205.696 649.813333 132.608 649.813333z m0-179.84a47.274667 47.274667 0 1 0 0 94.421334 47.274667 47.274667 0 0 0 0-94.421334zM512.085333 649.813333c-73.130667 0-132.608-59.477333-132.608-132.565333s59.477333-132.608 132.608-132.608c73.088 0 132.608 59.477333 132.608 132.608s-59.477333 132.565333-132.608 132.565333z m0-179.84a47.274667 47.274667 0 1 0 0.085334 94.464 47.274667 47.274667 0 0 0-0.085334-94.464zM891.392 649.813333c-73.088 0-132.565333-59.477333-132.565333-132.565333s59.52-132.608 132.565333-132.608c73.130667 0 132.608 59.477333 132.608 132.608s-59.52 132.565333-132.608 132.565333z m0-179.84a47.274667 47.274667 0 1 0 0.085333 94.464 47.274667 47.274667 0 0 0-0.085333-94.464z" fill="#2c2c2c" p-id="43792"></path></svg>