<?xml version="1.0" standalone="no"?><!DOCTYPE svg PUBLIC "-//W3C//DTD SVG 1.1//EN" "http://www.w3.org/Graphics/SVG/1.1/DTD/svg11.dtd"><svg t="1732206198622" class="icon" viewBox="0 0 1024 1024" version="1.1" xmlns="http://www.w3.org/2000/svg" p-id="26700" xmlns:xlink="http://www.w3.org/1999/xlink" width="200" height="200"><path d="M853.333333 384v426.666667a85.333333 85.333333 0 0 1-85.333333 85.333333H256a85.333333 85.333333 0 0 1-85.333333-85.333333V384a85.333333 85.333333 0 0 1-85.333334-85.333333V213.333333a85.333333 85.333333 0 0 1 85.333334-85.333333h682.666666a85.333333 85.333333 0 0 1 85.333334 85.333333v85.333334a85.333333 85.333333 0 0 1-85.333334 85.333333zM256 384v426.666667h512V384H256z m128 128v-85.333333h256v85.333333H384zM170.666667 213.333333v85.333334h682.666666V213.333333H170.666667z" p-id="26701" fill="#2c2c2c"></path></svg>