<?xml version="1.0" standalone="no"?><!DOCTYPE svg PUBLIC "-//W3C//DTD SVG 1.1//EN" "http://www.w3.org/Graphics/SVG/1.1/DTD/svg11.dtd"><svg t="1732206871851" class="icon" viewBox="0 0 1024 1024" version="1.1" xmlns="http://www.w3.org/2000/svg" p-id="47837" xmlns:xlink="http://www.w3.org/1999/xlink" width="200" height="200"><path d="M426.666667 128H170.666667a42.666667 42.666667 0 0 0-42.666667 42.666667v256a42.666667 42.666667 0 0 0 42.666667 42.666666h256a42.666667 42.666667 0 0 0 42.666666-42.666666V170.666667a42.666667 42.666667 0 0 0-42.666666-42.666667zM384 384H213.333333V213.333333h170.666667v170.666667z m469.333333-256h-256a42.666667 42.666667 0 0 0-42.666666 42.666667v256a42.666667 42.666667 0 0 0 42.666666 42.666666h256a42.666667 42.666667 0 0 0 42.666667-42.666666V170.666667a42.666667 42.666667 0 0 0-42.666667-42.666667z m-42.666666 256h-170.666667V213.333333h170.666667v170.666667z m-384 170.666667H170.666667a42.666667 42.666667 0 0 0-42.666667 42.666666v256a42.666667 42.666667 0 0 0 42.666667 42.666667h256a42.666667 42.666667 0 0 0 42.666666-42.666667v-256a42.666667 42.666667 0 0 0-42.666666-42.666666z m-42.666667 256H213.333333v-170.666667h170.666667v170.666667z m341.333333-256c-94.122667 0-170.666667 76.544-170.666666 170.666666s76.544 170.666667 170.666666 170.666667 170.666667-76.544 170.666667-170.666667-76.544-170.666667-170.666667-170.666666z m0 256c-47.061333 0-85.333333-38.272-85.333333-85.333334s38.272-85.333333 85.333333-85.333333 85.333333 38.272 85.333334 85.333333-38.272 85.333333-85.333334 85.333334z" p-id="47838" fill="#2c2c2c"></path></svg>