<?xml version="1.0" standalone="no"?><!DOCTYPE svg PUBLIC "-//W3C//DTD SVG 1.1//EN" "http://www.w3.org/Graphics/SVG/1.1/DTD/svg11.dtd"><svg t="1732206896055" class="icon" viewBox="0 0 1024 1024" version="1.1" xmlns="http://www.w3.org/2000/svg" p-id="48265" xmlns:xlink="http://www.w3.org/1999/xlink" width="200" height="200"><path d="M809.173333 545.749333c71.253333 0.213333 129.066667 59.050667 129.493334 131.797334v128.938666c-0.426667 72.832-58.154667 131.754667-129.493334 132.181334h-126.293333c-71.253333-0.426667-128.853333-59.434667-129.109333-132.181334V677.546667c0-72.789333 57.813333-131.797333 129.109333-131.797334z m-542.464 0a34.602667 34.602667 0 0 1 33.237334 16.512 36.181333 36.181333 0 0 1 0 37.717334 34.602667 34.602667 0 0 1-33.28 16.512H214.869333c-33.109333 0-59.989333 27.306667-60.16 61.013333v127.36c0.810667 33.493333 27.306667 60.416 60.16 61.013333h127.104c15.914667 0.128 31.232-6.229333 42.538667-17.706666s17.664-27.050667 17.664-43.306667v-191.189333l-0.554667-4.778667a35.797333 35.797333 0 0 1 16.128-31.744 34.261333 34.261333 0 0 1 38.997334 1.152c11.562667 8.490667 16.896 23.296 13.525333 37.376v190.378667c0 73.002667-57.984 132.224-129.493333 132.224H214.826667c-70.912-1.536-128-59.818667-129.493334-132.224V677.546667c0-35.029333 13.653333-68.608 37.973334-93.354667a127.744 127.744 0 0 1 91.52-38.4z m542.464 70.741334h-126.293333c-33.024 0-59.818667 27.306667-59.818667 61.013333v128.981333c-0.085333 16.213333 6.186667 31.786667 17.408 43.264 11.221333 11.52 26.496 17.92 42.410667 17.792h126.293333c15.914667 0.085333 31.146667-6.314667 42.410667-17.792 11.221333-11.477333 17.493333-27.050667 17.408-43.264V677.546667c0-16.213333-6.314667-31.744-17.493333-43.178667a59.178667 59.178667 0 0 0-42.325334-17.877333z m0-531.157334c70.741333 1.706667 127.616 59.946667 129.109334 132.181334v128.554666c0.426667 34.944-12.8 68.650667-36.693334 93.653334a127.829333 127.829333 0 0 1-90.837333 39.722666h-52.266667a35.328 35.328 0 0 1-31.146666-35.370666c0-18.176 13.44-33.408 31.146666-35.370667h50.688c16.042667-0.085333 31.36-6.741333 42.581334-18.389333 11.221333-11.690667 17.450667-27.477333 17.237333-43.861334V217.514667c-0.426667-33.536-26.965333-60.586667-59.818667-61.013334h-126.293333c-33.024 0-59.818667 27.306667-59.818667 61.013334v192.853333l-0.426666 4.394667a35.456 35.456 0 0 1-35.2 30.336 34.133333 34.133333 0 0 1-24.277334-11.008 35.584 35.584 0 0 1-9.386666-25.386667V217.6a133.205333 133.205333 0 0 1 37.674666-93.482667A127.786667 127.786667 0 0 1 682.88 85.333333zM341.12 85.333333c71.424 0.213333 129.28 59.306667 129.493333 132.181334V346.453333c0 35.029333-13.653333 68.608-37.973333 93.354667-24.277333 24.746667-57.173333 38.528-91.52 38.4h-126.293333C143.573333 478.08 85.76 419.242667 85.333333 346.453333V217.514667C85.76 144.682667 143.488 85.76 214.826667 85.333333z m0 71.125334h-126.293333c-16.085333-0.298667-31.573333 5.973333-43.093334 17.493333-11.434667 11.434667-17.92 27.178667-17.92 43.562667V346.453333c-0.298667 16.64 6.016 32.64 17.493334 44.373334 11.52 11.776 27.221333 18.218667 43.52 17.92h126.293333c16.042667-0.128 31.36-6.784 42.581333-18.432 11.264-11.690667 17.450667-27.477333 17.237334-43.861334V217.514667c-0.213333-33.621333-26.88-60.8-59.818667-61.013334z" fill="#2c2c2c" p-id="48266"></path></svg>