<?xml version="1.0" standalone="no"?><!DOCTYPE svg PUBLIC "-//W3C//DTD SVG 1.1//EN" "http://www.w3.org/Graphics/SVG/1.1/DTD/svg11.dtd"><svg t="1732207027994" class="icon" viewBox="0 0 1058 1024" version="1.1" xmlns="http://www.w3.org/2000/svg" p-id="53048" xmlns:xlink="http://www.w3.org/1999/xlink" width="206.640625" height="200"><path d="M908.193516 3.830424c-41.240898 0-121.041397 178.753117-121.041396 178.753117s-51.072319-21.833416-143.640898-21.833416q-93.206983 0-140.448878 21.833416Q413.175062-4.213466 362.485786 0.127681q-48.518703 4.085786-127.680798 919.301745a364.273317 364.273317 0 0 1-96.782045-25.536159c-32.686284-17.109227-39.708728-33.963092-41.240898-37.282793-35.622943-81.971072 36.899751-116.444888 70.990524-154.876808a29.749626 29.749626 0 0 0-34.090773-47.114215Q-14.683292 717.438404 1.65985 845.119202q17.109227 130.489776 226.505736 160.494763l7.91621 0.766085 8.809975 1.149127q344.738155 33.707731 813.199002-1.65985C1058.218454 634.190524 949.306733 3.830424 908.193516 3.830424zM471.269825 439.98803a38.304239 38.304239 0 1 1 38.30424-38.304239 38.304239 38.304239 0 0 1-38.30424 38.304239z m217.057357 79.545137c-26.812968 9.831421-41.496259 2.425935-49.412469-7.916209a31.9202 31.9202 0 0 1-26.557606 12.768079 65.755611 65.755611 0 0 1-22.982543-4.596508 4.85187 4.85187 0 0 1-2.808978-6.128679 4.596509 4.596509 0 0 1 6.128678-2.808977c28.089776 10.342145 37.410474-0.893766 41.879302-10.214464l4.341147-8.937656 4.213467 8.937656c4.468828 9.320698 13.789526 20.556608 41.879301 10.214464a4.762494 4.762494 0 0 1 3.319701 8.937656z m150.663342-79.545137a38.304239 38.304239 0 1 1 38.304239-38.304239 38.304239 38.304239 0 0 1-38.942643 38.304239z" fill="#2c2c2c" p-id="53049"></path></svg>