<?xml version="1.0" standalone="no"?><!DOCTYPE svg PUBLIC "-//W3C//DTD SVG 1.1//EN" "http://www.w3.org/Graphics/SVG/1.1/DTD/svg11.dtd"><svg t="1732206839114" class="icon" viewBox="0 0 1024 1024" version="1.1" xmlns="http://www.w3.org/2000/svg" p-id="47412" xmlns:xlink="http://www.w3.org/1999/xlink" width="200" height="200"><path d="M506.414545 899.506424c-212.898909 0-385.551515-172.590545-385.551515-385.551515S293.515636 128.372364 506.414545 128.372364 891.997091 300.993939 891.997091 513.954909 719.375515 899.506424 506.414545 899.506424m0-866.552242C240.764121 32.954182 25.444848 248.304485 25.444848 513.923879c0 265.681455 215.319273 480.969697 480.969697 480.969697 265.681455 0 480.969697-215.288242 480.969697-480.969697 0-265.619394-215.288242-480.969697-480.969697-480.969697" fill="#2c2c2c" p-id="47413"></path><path d="M506.414545 369.198545a144.787394 144.787394 0 1 0 0.062061 289.543758 144.787394 144.787394 0 0 0-0.03103-289.543758" fill="#2c2c2c" p-id="47414"></path></svg>