<?xml version="1.0" standalone="no"?><!DOCTYPE svg PUBLIC "-//W3C//DTD SVG 1.1//EN" "http://www.w3.org/Graphics/SVG/1.1/DTD/svg11.dtd"><svg t="1732207604486" class="icon" viewBox="0 0 1024 1024" version="1.1" xmlns="http://www.w3.org/2000/svg" p-id="85112" xmlns:xlink="http://www.w3.org/1999/xlink" width="256" height="256"><path d="M575.4 64h-74.5v633.5C385.1 644.7 249.3 715.3 226.8 820c-7.4 34.1 7.8 70.9 21.9 87.8 79.3 94.7 252.2 50.6 331.6-51.2 35.3-45.2 32.3-84.5 32.3-181.3V287.6c48.9 36.3 104 70.1 123.7 134.9 12.2 40.3-4.1 107.3-17.1 141.5-3.9 10.3-14.7 18.9-9.7 29.2 34.3 25.4 51.1-28.6 60.9-51.2 10.6-24.5 20.8-54.7 24.4-75.6C833.2 242.8 595.5 234.3 575.4 64" fill="#2c2c2c" p-id="85113"></path></svg>