<?xml version="1.0" standalone="no"?><!DOCTYPE svg PUBLIC "-//W3C//DTD SVG 1.1//EN" "http://www.w3.org/Graphics/SVG/1.1/DTD/svg11.dtd"><svg t="1732207556888" class="icon" viewBox="0 0 1024 1024" version="1.1" xmlns="http://www.w3.org/2000/svg" p-id="81887" xmlns:xlink="http://www.w3.org/1999/xlink" width="256" height="256"><path d="M558.687902 797.915433c-35.431641-69.776029-77.00306-140.255574-158.163263-140.255574-15.477359 0-30.954719 2.558241-45.216913 9.081756l-27.501093-55.194054c33.576916-28.780214 87.81163-51.676472 157.587658-51.676472 108.533383 0 164.239086 52.316033 208.496659 118.958216 26.221972-56.920867 38.693398-133.859971 38.693398-229.218412 0-238.172257-74.508775-360.456186-248.469177-360.456187-171.402161 0-245.5272 122.28393-245.5272 360.456187 0 236.893136 74.125039 357.897945 245.591156 357.897945 27.181313 0 51.868341-2.941977 74.572731-9.593405z m42.53076 83.142839a455.814627 455.814627 0 0 1-117.039535 15.605272C255.792143 896.663544 32.329773 714.51677 32.329773 449.610893 32.329773 182.21073 255.856099 0 484.115171 0c232.16039 0 453.448254 180.867653 453.448254 449.610893 0 149.465243-69.712073 270.917744-171.082381 349.455749 32.745487 49.054275 66.514271 81.671851 113.394042 81.67185 51.292736 0 71.950534-39.652739 75.40416-70.671413h66.706139c3.901318 41.379552-16.75648 213.229405-203.252264 213.229405-113.010305 0-172.681282-65.490975-217.450503-142.238212z" fill="#2c2c2c" p-id="81888"></path></svg>