<?xml version="1.0" standalone="no"?><!DOCTYPE svg PUBLIC "-//W3C//DTD SVG 1.1//EN" "http://www.w3.org/Graphics/SVG/1.1/DTD/svg11.dtd"><svg t="1732207739617" class="icon" viewBox="0 0 1024 1024" version="1.1" xmlns="http://www.w3.org/2000/svg" p-id="89073" xmlns:xlink="http://www.w3.org/1999/xlink" width="256" height="256"><path d="M298.666667 153.6c-76.8 0-145.066667 59.733333-145.066667 145.066667v426.666666c0 76.8 59.733333 145.066667 145.066667 145.066667h426.666666c76.8 0 145.066667-68.266667 145.066667-145.066667v-426.666666c0-76.8-68.266667-145.066667-145.066667-145.066667h-426.666666z m0-68.266667h426.666666C844.8 85.333333 938.666667 179.2 938.666667 298.666667v426.666666C938.666667 844.8 844.8 938.666667 725.333333 938.666667h-426.666666C179.2 938.666667 85.333333 844.8 85.333333 725.333333v-426.666666c0-59.733333 25.6-110.933333 59.733334-145.066667 42.666667-42.666667 93.866667-68.266667 153.6-68.266667z" p-id="89074" fill="#2c2c2c"></path></svg>