<?xml version="1.0" standalone="no"?><!DOCTYPE svg PUBLIC "-//W3C//DTD SVG 1.1//EN" "http://www.w3.org/Graphics/SVG/1.1/DTD/svg11.dtd"><svg t="1732205968976" class="icon" viewBox="0 0 1024 1024" version="1.1" xmlns="http://www.w3.org/2000/svg" p-id="23340" xmlns:xlink="http://www.w3.org/1999/xlink" width="200" height="200"><path d="M512 0C229.21 0 0 229.21 0 512s229.21 512 512 512 512-229.21 512-512S794.79 0 512 0z m260.41 413.88c-2.89 218.54-142.66 368.24-351.26 377.65-86 3.93-148.36-23.86-202.61-58.32 63.58 10.15 142.43-15.27 184.6-51.36-62.33-6.08-99.23-37.79-116.5-88.85a145.45 145.45 0 0 0 54.1-1.34c-56.25-18.82-96.41-53.57-98.49-126.42 15.79 7.19 32.24 13.93 54.1 15.26-42.09-23.93-73.22-111.45-37.57-169.33 62.47 68.48 137.61 124.35 261 131.91-31-132.43 144.51-204.24 218-115.23 31-6 56.32-17.79 80.63-30.61-10 30.75-29.28 52.25-52.77 69.44 25.79-3.49 48.62-9.78 68.11-19.42-12.13 25.12-38.59 47.65-61.34 66.62z" p-id="23341" fill="#2c2c2c"></path></svg>