<?xml version="1.0" standalone="no"?><!DOCTYPE svg PUBLIC "-//W3C//DTD SVG 1.1//EN" "http://www.w3.org/Graphics/SVG/1.1/DTD/svg11.dtd"><svg t="1732207448121" class="icon" viewBox="0 0 1077 1024" version="1.1" xmlns="http://www.w3.org/2000/svg" p-id="78221" xmlns:xlink="http://www.w3.org/1999/xlink" width="269.25" height="256"><path d="M986.273684 873.094737c56.751158-52.655158 91.621053-122.502737 91.621053-199.410526 0-124.011789-90.058105-230.130526-217.788632-274.324211l0.970106 0.269474C861.507368 392.192 862.315789 384.808421 862.315789 377.263158c0-208.357053-193.050947-377.263158-431.157894-377.263158S0 168.906105 0 377.263158c0 92.375579 38.103579 176.882526 101.052632 242.526316L53.894737 808.421053l186.421895-93.237895c45.918316 19.887158 96.471579 32.660211 149.827368 37.187368C430.942316 877.837474 566.325895 970.105263 727.578947 970.105263a403.671579 403.671579 0 0 0 139.479579-24.576L1024 1024l-37.726316-150.905263z m-174.133895-486.777263c-1.509053-0.323368-3.018105-0.700632-4.581052-0.970106 1.562947 0.269474 3.072 0.646737 4.581052 0.970106z m-431.696842 325.254737c0.269474 1.886316 0.700632 3.718737 1.024 5.551157a91.782737 91.782737 0 0 1-1.024-5.551157z m-1.293473-68.608C225.387789 622.160842 107.789474 511.299368 107.789474 377.263158c0-148.803368 144.815158-269.473684 323.368421-269.473684s323.368421 120.670316 323.368421 269.473684l-0.053895 1.131789h0.215579C745.687579 377.856 736.741053 377.263158 727.578947 377.263158c-181.248 0-330.266947 116.412632-348.429473 265.701053zM485.052632 673.684211C485.052632 569.505684 593.650526 485.052632 727.578947 485.052632s242.526316 84.453053 242.526316 188.631579-108.597895 188.631579-242.526316 188.631578S485.052632 777.862737 485.052632 673.684211z" fill="#2c2c2c" p-id="78222"></path></svg>